<svg t="1631104019083" class="icon" viewBox="0 0 1024 1024" version="1.1" xmlns="http://www.w3.org/2000/svg" p-id="7299" width="200" height="200"><path d="M856.2 890.5H402.4c-55.3-0.1-108-23.4-145.4-64.2L23 571c-30.7-33.4-30.7-84.8 0-118.2l233.9-255.1c37.3-40.8 90.1-64.1 145.4-64.2h453.8c92.7 0.2 167.8 75.4 167.8 168.1v420.7c0.1 92.8-75 168-167.7 168.2zM402.6 184.9c-41 0-80 17.2-107.8 47.4L60.9 487.6c-12.8 13.7-12.8 34.9 0 48.6l233.7 255.3c27.7 30.2 66.8 47.4 107.8 47.4h454c64.4-0.1 116.5-52.4 116.5-116.8V301.6c0-64.4-52.2-116.6-116.5-116.8H402.6z m323.7 471c-6.8 0-13.4-2.7-18.2-7.5l-100-100.2L508 648.4c-9.9 10.1-26.1 10.2-36.2 0.3-10.1-9.9-10.2-26.1-0.3-36.2l0.4-0.4 100-100.2-100-100.2c-10.1-9.9-10.3-26.1-0.4-36.2 9.9-10.1 26.1-10.3 36.2-0.4l0.4 0.4 100 100.2 100-100.2c10-10 26.2-10 36.2 0 10 10 10 26.2 0 36.2l-100 100.2 100.2 100.2c10 10 10 26.3-0.1 36.3-4.8 4.8-11.3 7.5-18.1 7.5z" p-id="7300" fill="#ffffff"></path></svg>
