<svg t="1630552419405" class="icon" viewBox="0 0 1024 1024" version="1.1" xmlns="http://www.w3.org/2000/svg" p-id="1865" width="200" height="200"><path d="M931.361113 578.590628 92.637864 578.590628c-15.187911 0-27.499307-12.31242-27.499307-27.499307l0-343.738785c0-15.187911 12.311397-27.499307 27.499307-27.499307l838.72325 0c15.186887 0 27.499307 12.311397 27.499307 27.499307l0 343.738785C958.860421 566.278207 946.548 578.590628 931.361113 578.590628zM931.361113 207.352535 92.637864 207.352535l0 343.738785 838.72325 0L931.361113 207.352535zM202.635093 317.347718 147.636478 317.347718l0-54.996568 54.998615 0L202.635093 317.347718zM202.635093 413.595806 147.636478 413.595806l0-54.999638 54.998615 0L202.635093 413.595806zM202.635093 509.842871 147.636478 509.842871l0-54.998615 54.998615 0L202.635093 509.842871zM298.881135 317.347718l-54.998615 0 0-54.996568 54.998615 0L298.881135 317.347718zM298.881135 413.595806l-54.998615 0 0-54.999638 54.998615 0L298.881135 413.595806zM298.881135 509.842871l-54.998615 0 0-54.998615 54.998615 0L298.881135 509.842871zM395.128199 317.347718 340.130607 317.347718l0-54.996568 54.998615 0L395.129222 317.347718zM395.128199 413.595806 340.130607 413.595806l0-54.999638 54.998615 0L395.129222 413.595806zM683.869393 509.842871 340.130607 509.842871l0-54.998615 343.738785 0L683.869393 509.842871zM780.116457 317.347718l-54.998615 0 0-54.996568 54.998615 0L780.116457 317.347718zM780.116457 413.595806l-54.998615 0 0-54.999638 54.998615 0L780.116457 413.595806zM780.116457 509.842871l-54.998615 0 0-54.998615 54.998615 0L780.116457 509.842871zM876.363522 317.347718l-54.998615 0 0-54.996568 54.998615 0L876.363522 317.347718zM876.363522 413.595806l-54.998615 0 0-54.999638 54.998615 0L876.363522 413.595806zM876.363522 509.842871l-54.998615 0 0-54.998615 54.998615 0L876.363522 509.842871zM628.870778 358.596168l54.998615 0 0 54.999638-54.998615 0L628.870778 358.596168zM628.870778 262.35115l54.998615 0 0 54.996568-54.998615 0L628.870778 262.35115zM532.623713 358.596168l54.998615 0 0 54.999638-54.998615 0L532.623713 358.596168zM532.623713 262.35115l54.998615 0 0 54.996568-54.998615 0L532.623713 262.35115zM436.377672 358.596168l54.998615 0 0 54.999638-54.998615 0L436.377672 358.596168zM436.377672 262.35115l54.998615 0 0 54.996568-54.998615 0L436.377672 262.35115zM378.033869 669.14197l136.114051 136.114051 136.114051-136.114051 19.442818 19.444864L514.148943 844.145749 358.589005 688.585811 378.033869 669.14197z" p-id="1866" fill="#ffffff"></path></svg>
